<svg xmlns="http://www.w3.org/2000/svg" xml:space="preserve" width="960" height="960" viewBox="0 0 960 960">
  <path d="M520.82 458.5v17.84c0 6.68.15 11.05.47 13.11.32 2.07 1.16 3.6 2.53 4.6 1.38 1 3.97 1.51 7.76 1.51h2.82v2.88h-38.87v-2.88h2.26c3.62 0 6.14-.46 7.54-1.38a6.25 6.25 0 0 0 2.65-4.29c.38-1.94.57-6.45.57-13.55v-41.62c0-6.76-.19-11.12-.57-13.08-.37-1.96-1.2-3.31-2.5-4.06-1.3-.75-4.09-1.13-8.39-1.13h-1.56v-2.88l10.63-.38c8.52-.29 15.15-.43 19.9-.43 8.77 0 15.52.68 20.25 2.07a23.76 23.76 0 0 1 11.64 7.31c3.03 3.51 4.55 7.94 4.55 13.27a24 24 0 0 1-3.1 12.27 19.91 19.91 0 0 1-8.9 8.08c-3.85 1.83-10.64 2.75-20.36 2.75zm0-3.12h6.07c4.88 0 8.83-.49 11.83-1.47 3-.97 5.51-3.04 7.51-6.16 2-3.13 3-7 3-11.58 0-7.01-1.71-12.15-5.16-15.43-3.44-3.28-9.02-4.91-16.74-4.91-2.83 0-5 .08-6.5.25v39.3z"/>
  <path d="M606.87 467.15h-32.23l-2.19 5.38c-3.25 7.8-4.88 12.9-4.88 15.27 0 2.54.86 4.47 2.6 5.79 1.73 1.31 3.95 1.97 6.66 1.97v2.88h-25.22v-2.88c3.75-.59 6.55-1.9 8.39-3.98 1.84-2.07 4.04-6.42 6.63-13.04.21-.63 1.21-3.05 3-7.27l24.67-58.9h2.44l28.35 67.42 3.88 8.88c.88 2 2.06 3.58 3.54 4.72 1.48 1.16 3.7 1.87 6.66 2.17v2.87h-33.36v-2.87c4.09 0 6.86-.31 8.3-.92 1.43-.6 2.16-1.8 2.16-3.6 0-.92-.97-3.65-2.89-8.2zm-1.06-2.82-15.02-36.17-14.95 36.17z"/>
  <path d="M645.74 497.56v-27.29h3.14c3.54 17.78 11.95 26.67 25.21 26.67 5.97 0 10.59-1.7 13.87-5.1 3.27-3.4 4.9-7.21 4.9-11.43 0-4.26-1.43-7.82-4.31-10.7-2.88-2.84-8.14-5.89-15.77-9.14-6.8-2.92-11.93-5.48-15.4-7.67a23.35 23.35 0 0 1-11.02-19.75c0-6.05 2.1-11.08 6.3-15.11 4.19-4.03 9.5-6.04 15.92-6.04a29 29 0 0 1 10.14 1.75c3.16 1.17 6.42 3.6 9.76 7.26 1.92-2.29 3-4.77 3.26-7.45h2.75v22.22h-2.75c-1.6-6.46-4.4-11.56-8.42-15.27a20.01 20.01 0 0 0-14-5.57c-5.04 0-8.75 1.37-11.1 4.1a13.47 13.47 0 0 0-3.54 8.98c0 3.92 1.48 7.24 4.45 9.95 2.92 2.75 8.2 5.85 15.83 9.27 7.3 3.25 12.61 5.87 15.93 7.85a22.16 22.16 0 0 1 7.98 8.23c2 3.5 3 7.55 3 12.14 0 7.26-2.42 13.17-7.26 17.71-4.84 4.55-11.3 6.83-19.4 6.83-9.3 0-17.07-3.57-23.28-10.7-1.38 1.96-2.4 4.71-3.07 8.26h-3.12z"/>
  <path d="M780.93 472.03h3l-1.82 26.4h-70.29v-2.87h1.76c4.21 0 6.93-.56 8.17-1.69a7.58 7.58 0 0 0 2.34-4.28c.33-1.74.5-6.15.5-13.24v-41.62c0-6.47-.17-10.73-.53-12.77-.36-2.04-1.17-3.47-2.44-4.28s-3.96-1.22-8.04-1.22v-2.88h60.64l2 21.15h-2.94c-1.33-5.92-2.97-10.13-4.9-12.6a12.44 12.44 0 0 0-6.92-4.7c-2.68-.64-6.97-.97-12.9-.97H736.8v35.61h9.01c4.13 0 7.02-.35 8.67-1.06a5.58 5.58 0 0 0 3.25-3.22c.53-1.44.78-4.25.78-8.42h2.95v29.04h-2.95c0-4.7-.39-7.87-1.19-9.48a5.72 5.72 0 0 0-3.47-3.13c-1.53-.48-4.1-.72-7.73-.72h-9.33v20.09c0 10.05.65 15.97 1.94 17.74 1.3 1.78 4.78 2.67 10.45 2.67h6.32c4.47 0 8.15-.58 11.02-1.73 2.88-1.15 5.62-3.5 8.23-7.07 2.62-3.58 4.68-8.49 6.18-14.75z"/>
  <path d="M868.86 466.58h2.69v29.73h-2.69a22.81 22.81 0 0 0-4.07-8.95c-7.47 8.43-17 12.64-28.6 12.64-12.27 0-22.3-3.87-30.07-11.64-7.78-7.76-11.67-18.02-11.67-30.8a53.6 53.6 0 0 1 5.38-23.68c3.59-7.4 8.6-12.9 15.02-16.5a42.66 42.66 0 0 1 21.15-5.37c6.35 0 12.1 1.3 17.24 3.9 5.16 2.62 9 5.5 11.55 8.68a30.91 30.91 0 0 0 3.25-11.02h2.76l.75 32.17h-2.69c-1.88-11.43-5.7-19.38-11.48-23.85a31.15 31.15 0 0 0-19.56-6.7c-8.88 0-15.95 3.62-21.18 10.83-5.24 7.22-7.86 17.55-7.86 30.99 0 12.73 2.86 22.48 8.57 29.25 5.72 6.79 12.84 10.17 21.34 10.17a33 33 0 0 0 13.96-3.31c4.76-2.22 8.53-5.96 11.3-11.24 2.77-5.27 4.4-10.37 4.91-15.3z"/>
  <path fill="#e01f26" d="M455.7 417.66h2.84v109.57h-2.84z"/>
  <path d="M90.86 435.46c0-3.8-.55-6.36-1.63-7.65-1.08-1.3-3.2-1.95-6.38-1.95H80v-4.59h35.5v4.6h-10.85v76.86c0 5.4 1.44 9.5 4.31 12.32 2.88 2.84 7.07 4.25 12.56 4.25 5.55 0 9.7-1.67 12.44-5 2.75-3.32 4.13-8.42 4.13-15.29v-63.55c0-3.86-.53-6.42-1.59-7.7-1.06-1.26-3.14-1.9-6.26-1.9h-3.02v-4.59h26.24v4.6H142.6v75.28c0 8.4-2.22 14.86-6.65 19.38-4.44 4.51-10.76 6.77-18.94 6.77-8.62 0-15.12-2.35-19.54-7.05-4.4-4.7-6.61-11.62-6.61-20.76z"/>
  <path d="M253.94 435.46c0-3.8-.54-6.36-1.62-7.65-1.09-1.3-3.21-1.95-6.38-1.95h-2.85v-4.59h53.65v-6.81h4.9v36.37h-4.9v-6.65c0-6.6-1.62-11.31-4.84-14.1-3.22-2.8-8.64-4.21-16.24-4.21h-7.93v25.12h12.68v-14.26h4.83v36.69h-4.83v-7.45c0-3.33-.84-5.9-2.5-7.73-1.66-1.83-3.98-2.74-6.93-2.74h-3.25v55.4c0 3.75.54 6.28 1.63 7.6 1.08 1.32 3.18 1.99 6.3 1.99h4.9V525H243.1v-4.51h10.85z"/>
  <path fill="#e01f26" d="M243.64 456.68c.32-1.3 1.56-2.08 1.93-3.14.47-1.4.1-2.95-.89-3.9 0 0 .05-.08.01-.17a.21.21 0 0 0 .1-.08c-.35-2.8-2.66-4.44-5.43-3.15-2.99-2.96-9.25-3.2-9.07-8.77.84-.46 2.5 0 3.13-.04-.57-2.95-2.25-5.95-6.17-5.48 1.6-6.17-8-3.05-9.32-6.8-.7.14-1.1.66-1.57 1.1l-.03-.16c.15-4.29 4.13-4.97 6.09-1.9-.37-2.57-6.1-3.3-7.22-1.08-1.4-3.15 1.71-1.82-.4-4.63-2.75-3.48-7.37-5.42-11.55-6.4 3.14 1.38 6.15 3.41 6.65 8.09-1.72-1.4-3.04-1.19-3.04-1.19s1.28.86.23 2.37c-.25.33-3.61-.21-3.38.12-2.53-.78-4.13-4.38-6.33-5.56-4.13-2.47-12.1-4.24-16.35-1.5 4.68 1.48 8.82 3.8 11.68 8.49-1.83.2-6.05.56-6.35 3.05 1.28-.29 3.25-.47 4.07.67-4.83 2.96-9.47 6.67-10.3 13.12 1.85-2.42 3.3-4.7 5.66-6.27 2.5-1.66 5.38-1.93 6.52-1.44-5.7.7-8.53 4.35-9.78 8-.6 1.77-.99 3.65-2.01 5.11-.98 1.51-2.1-.4-2.02.13.41 2.79 1.83 2.88 1.64 3.6-.1.42-.26 2.21-.28 3.41-.08 5.83 8.57 16.04 1.62 18.75 2.6 1.72 5.56-1.23 7.03-3.03 2.33 2.5 3.43 4.88 6.32 6.07v.05c.87 1 1.6 6.72 11.43 8.81a8.46 8.46 0 0 1-3.54-4.8l.17-.15c4.96 2.73 7.9 4.52 8.82 5.4 3.02 2.96 4.48 6.82 4.4 11.61-.5 3.6-2.28 5.55-5.73 7.82 1.32.38 3.04.01 4.59-.53a16.7 16.7 0 0 1-2.39 3.72c-1.92 1.1-3.97 1.35-8.13.08 2.18 1.86 3.42 1.92 4.26 2.3-.46.42-3.75 2.54-7.09 2.08-4.65-.65-6.8-2.86-8.06-7.42-.36-.88-.01-2.67.86-5.4 1.25-2.77 3.08-4.48 5.47-5.13-4.24-.33-8.12 1.59-11.68 5.7a22.8 22.8 0 0 0-6.3-4.04c.1-1.08 2.03-2.3 6.87-2.24a36.15 36.15 0 0 0-7.5-1.53c-2.83-.15-5.87.22-6.18.83 1.35-2.63 7.7-5.96 9.37-5.16a13.2 13.2 0 0 0-4.3-1.12 20.8 20.8 0 0 0-4.16.16c-4.75.66-9.18 3.4-12.94 6.28-12.96 9.88-20.14 28.47-19.28 44.37.03.48.22 1.82.38 2.56.07.38.15.6.18.48v-.02l.02-.24c.18-1.8 1.36-12.6 6.05-21.28-2.96 11.45 1.53 28.55 1.53 28.55-1.92-11.67.11-33.22 11.62-39.85.4-.2 1.1-.52 1.48-.68a10.7 10.7 0 0 1 14.6 9.95 10.7 10.7 0 0 1-10.4 10.7c1.59.48 3.33.8 5.25.95 5.72.5 10.38.44 13.94-5.95 0 0-5.15 8.74-9.21 19.22 13.43-16.04 18.82-9.6 26.42-12.27-.87 1.17-2.6 2.67-5.36 4.08 3.58-.11 9.18-2.32 17.43-7.4.2 4.34.36 8.1 3.32 10.91 0 0-.98-9.24 9.19-19.72.79 1.68.53 2.78-1.18 8.18 4.04-6.95 7.63-10.12 8.64-14.43.57-2.4 2.21-9.9 2.22-12.16.64-8.68-1.31-17.18-9.67-24.58a93.49 93.49 0 0 0-9.6-7.82c-.1-.15-.22-.3-.3-.45 1.35.44 2.55.25 5.82-2.74-4 .55-5.02.22-8.69-.6a18.48 18.48 0 0 1-6.03-2.52c-2.44-1.5-3.1-4.75-4.28-7.36-.59-1.31-1.3-2.75-1.36-4.21 0-.14.03-.37 0-.49 0 0 .3 1.62 3.68 1.84 2.06.14 3.52-2 5.49-2.2 2.83-.26 5.55 2.22 7.04 3.6 2.66 2.43 3.52 6.68 6.96 8.19a9.4 9.4 0 0 0 2.67.75c.07.44.03.8-.04 1.26-.4 2.56-2.26 2.53-3.8 1.44.66 1.2 3.33 2.8 4.54-1.22.14-.5.25-.98.34-1.49.53.02 1.05.01 1.57-.02.48-.03 4.9-.73 3.91-1.74-.33-.34-1.06-.23-1.42-.15-1.24.3-2.5 0-3.7-.2a7.44 7.44 0 0 1 1.22-3.07c.8.59.77.64 1.61 1.11.78.44 1.6.76 2.46.96 1.14.25 2.4 1.13 3.3-.13.91-1.27.92-3.07 2.06-4.24.04-.04.04-.08.06-.12 2.29 1.75-.5 3.6-.67 5.47-.3 3.04 1.97 2.74 2.74 2.14-1.33.29-2.62-.24-2.18-2.07zm-22-21.36c-1.34-.56-2.63-1.24-4.15-1.48 1.14-3.3 3.38-2.57 5.34-1.04.53.4 1.02.83 1.47 1.29.78.76 1.44 1.52 1.86 1.98-1.07.16-2 .03-2.88-.2a11.9 11.9 0 0 1-1.64-.55zm9.05 20.53c-.74-.23-.67-.25-1.31-.74a8.54 8.54 0 0 1-1.99-2.1c-2.9-4.28-3.17-4.04-3.21-6.16-.01-.59 1.35.06 1.81.34 1 .62 1.93 1.42 2.84 2.17 1 .83 1.64 1.31 2.67 2.12-.69.77-.83 2.13-.9 3.27-.04.7-.02.28.09 1.1z"/>
  <path d="M407.87 435.2a53.27 53.27 0 0 1 15.44 38.07c0 13.25-4.68 25.42-13.41 35.56-10.93 12.64-24.96 18.88-42.58 18.88-31.98 0-56.94-24.02-56.94-54.75s24.34-54.44 56-54.44c16.69 0 30.73 5.61 41.49 16.69zm-74.1.79c-6.7 7.49-10.13 16.69-10.13 28.08 0 31.35 23.09 58.18 49.92 58.18 20.43 0 36.18-17.62 36.18-40.71 0-30.1-24.02-57.25-50.38-57.25-9.05 0-19.19 4.68-25.58 11.7z"/>
  <path d="m516.4 535.46-1.85-2.38s-31.3 20.72-115.69-11.22c0 0-30.3-12.28-40.62-8.15 0 0-4.57 1.3-3.73 7.93l2.56 2.21s1.26-6.6 10.48-6.09c9.22.52 18.4 4.1 30.73 8.82 12.33 4.7 45.22 16.68 59.8 19.32 14.58 2.63 27.41 2.97 46.51-5.01 4.76-2.12 7.12-3.21 11.8-5.43z"/>
  <path d="M491.34 507.28h4c1.36 0 4.85 0 4.85 4.5 0 2.92-1.86 4.54-4.52 4.54h-2.4v6.64h-1.93v-15.68zm1.93 7.46h2.3c1.41 0 2.6-.97 2.6-3.05 0-1.71-.82-2.84-2.73-2.84h-2.18v5.9z"/>
  <path d="M501.83 511.19h1.84v1.76h.05c.53-1.13 1.22-2.07 2.54-2.07.37 0 .64.04.81.13v1.8c-.17-.02-.39-.09-.98-.09-.93 0-2.42.83-2.42 2.78v7.45h-1.84z"/>
  <path d="M512 510.88c3.4 0 4.23 2.88 4.23 6.19 0 3.32-.85 6.2-4.24 6.2-3.4 0-4.24-2.88-4.24-6.2 0-3.31.86-6.19 4.24-6.19zm2.3 6.19c0-2.54-.38-4.74-2.36-4.74-1.86 0-2.26 2.2-2.26 4.74 0 2.55.38 4.74 2.26 4.74 1.96 0 2.35-2.2 2.35-4.74z"/>
  <path d="M525.82 522.2c0 3.52-1.63 4.8-4 4.8-.73 0-3.56 0-3.86-2.95h1.85c.09 1.07.92 1.49 1.88 1.49 2.37 0 2.29-1.83 2.29-2.64v-1.53h-.04c-.4.98-1.5 1.58-2.66 1.58-3.43 0-3.65-4.32-3.65-5.89 0-3.18.86-6.19 3.84-6.19 1.28 0 2.3.88 2.55 1.8h.04v-1.49h1.76zm-6.26-5.13c0 1.9.28 4.3 2.13 4.3 2 0 2.4-1.88 2.4-4.3 0-2.28-.4-4.61-2.38-4.61-1.71 0-2.15 1.8-2.15 4.6z"/>
  <path d="M528.23 511.19h1.85v1.76h.05c.52-1.13 1.22-2.07 2.54-2.07.37 0 .64.04.8.13v1.8c-.16-.02-.38-.09-.97-.09-.93 0-2.42.83-2.42 2.78v7.45h-1.85z"/>
  <path d="M534.44 514.74c0-2.68 1.15-3.86 3.96-3.86 3.58 0 3.58 2.15 3.58 3.38v6.57c0 .48 0 .94.57.94.24 0 .35-.04.44-.1v1.31c-.14.03-.62.11-1.08.11-.7 0-1.58 0-1.67-1.52h-.04a3.32 3.32 0 0 1-2.83 1.7c-2.2 0-3.2-1.32-3.2-3.43 0-1.64.7-2.79 2.21-3.25l2.48-.75c1.34-.41 1.34-.79 1.34-1.77 0-1.1-.66-1.74-1.88-1.74-2.03 0-2.03 1.89-2.03 2.3v.11zm5.69 1.8c-.68.73-2.3.88-3.14 1.39-.6.37-.9.83-.9 1.86 0 1.19.41 2.02 1.66 2.02 1.21 0 2.37-1.03 2.37-2.24v-3.03z"/>
  <path d="M544.65 511.19h1.75v1.38h.05c.49-1.07 1.71-1.69 2.86-1.69 1.36 0 2.17.53 2.54 1.87.53-1.03 1.58-1.87 2.79-1.87 3.1 0 3.1 2.35 3.1 3.74v8.34h-1.85v-8.12c0-.9-.07-2.38-1.59-2.38-.85 0-2.19.53-2.19 2.38v8.12h-1.85v-8.12c0-.9-.06-2.38-1.58-2.38-.85 0-2.2.53-2.2 2.38v8.12h-1.84v-11.77z"/>
  <path d="M560.04 514.74c0-2.68 1.14-3.86 3.95-3.86 3.58 0 3.58 2.15 3.58 3.38v6.57c0 .48 0 .94.57.94.24 0 .35-.04.44-.1v1.31a5.8 5.8 0 0 1-1.08.11c-.7 0-1.58 0-1.66-1.52h-.05a3.32 3.32 0 0 1-2.83 1.7c-2.2 0-3.2-1.32-3.2-3.43 0-1.64.7-2.79 2.22-3.25l2.48-.75c1.34-.41 1.34-.79 1.34-1.77 0-1.1-.66-1.74-1.89-1.74-2.02 0-2.02 1.89-2.02 2.3v.11zm5.68 1.8c-.68.73-2.3.88-3.14 1.39-.59.37-.9.83-.9 1.86 0 1.19.42 2.02 1.67 2.02 1.2 0 2.37-1.03 2.37-2.24v-3.03z"/>
  <path d="M583.09 522.96h-1.76v-1.45h-.04c-.24.87-1.27 1.75-2.55 1.75-2.78 0-3.84-2.48-3.84-6.2 0-2.45.4-6.18 3.72-6.18 1.05 0 2.17.63 2.59 1.64h.04v-5.25h1.84v15.69zm-4.1-1.28c2.04 0 2.37-1.93 2.37-4.61 0-2.28-.4-4.61-2.37-4.61-1.72 0-2.15 1.8-2.15 4.6 0 2.82.43 4.62 2.15 4.62z"/>
  <path d="M587.04 517.29c0 1.8 0 4.52 2.26 4.52 1.76 0 2-1.84 2-2.72h1.85c0 1.25-.75 4.17-3.96 4.17-2.87 0-4.08-2-4.08-6.03 0-2.95.57-6.35 4.2-6.35 3.6 0 3.93 3.14 3.93 5.66v.75zm4.26-1.45v-.64c0-1.32-.42-2.88-2.05-2.88-1.93 0-2.15 2.37-2.15 3.08v.44z"/>
  <path d="M602.84 507.28h2.59l4.22 15.68h-2.02l-1.13-4.3h-5l-1.17 4.3h-2.02zm-.94 9.79h4.21l-2-7.57h-.04z"/>
  <path d="M610.9 511.19h1.75v1.44h.05c.24-.87 1.27-1.75 2.54-1.75 2.79 0 3.84 2.48 3.84 5.97 0 2.68-.79 6.41-3.84 6.41a2.66 2.66 0 0 1-2.46-1.64h-.05v5.2h-1.84V511.2zm4.1 10.5c1.71 0 2.15-1.81 2.15-4.84 0-2.59-.44-4.39-2.15-4.39-2.04 0-2.37 1.93-2.37 4.6 0 2.29.4 4.62 2.37 4.62z"/>
  <path d="M621.06 511.19h1.84v1.76h.05c.53-1.13 1.23-2.07 2.54-2.07.38 0 .64.04.82.13v1.8c-.18-.02-.4-.09-.99-.09-.92 0-2.42.83-2.42 2.78v7.45h-1.84z"/>
  <path d="M629.1 517.29c0 1.8 0 4.52 2.26 4.52 1.75 0 2-1.84 2-2.72h1.84c0 1.25-.74 4.17-3.95 4.17-2.88 0-4.08-2-4.08-6.03 0-2.95.57-6.35 4.2-6.35 3.6 0 3.92 3.14 3.92 5.66v.75zm4.25-1.45v-.64c0-1.32-.42-2.88-2.04-2.88-1.93 0-2.15 2.37-2.15 3.08v.44z"/>
  <path d="M637.3 511.19h1.76v1.38h.04c.48-1.07 1.71-1.69 2.85-1.69 3.1 0 3.1 2.35 3.1 3.74v8.34h-1.85v-8.12c0-.9-.06-2.38-1.73-2.38-.99 0-2.33.66-2.33 2.38v8.12h-1.84z"/>
  <path d="M655.21 522.96h-1.76v-1.45h-.04c-.24.87-1.27 1.75-2.55 1.75-2.78 0-3.84-2.48-3.84-6.2 0-2.45.4-6.18 3.72-6.18 1.05 0 2.17.63 2.59 1.64h.04v-5.25h1.85v15.69zm-4.1-1.28c2.04 0 2.37-1.93 2.37-4.61 0-2.28-.4-4.61-2.37-4.61-1.72 0-2.15 1.8-2.15 4.6 0 2.82.43 4.62 2.15 4.62z"/>
  <path d="M657.73 507.28h1.85v2.1h-1.85zm0 3.9h1.85v11.78h-1.85z"/>
  <path d="M661.76 511.19h7.08v1.54l-5.27 8.65h5.23v1.58h-7.31v-1.45l5.34-8.74h-5.07z"/>
  <path d="M670.36 514.74c0-2.68 1.14-3.86 3.95-3.86 3.58 0 3.58 2.15 3.58 3.38v6.57c0 .48 0 .94.57.94.24 0 .35-.04.44-.1v1.31a5.8 5.8 0 0 1-1.08.11c-.7 0-1.58 0-1.66-1.52h-.05a3.32 3.32 0 0 1-2.83 1.7c-2.2 0-3.2-1.32-3.2-3.43 0-1.64.7-2.79 2.22-3.25l2.48-.75c1.34-.41 1.34-.79 1.34-1.77 0-1.1-.66-1.74-1.88-1.74-2.03 0-2.03 1.89-2.03 2.3v.11zm5.69 1.8c-.68.73-2.3.88-3.14 1.39-.6.37-.9.83-.9 1.86 0 1.19.41 2.02 1.66 2.02 1.2 0 2.37-1.03 2.37-2.24v-3.03z"/>
  <path d="M682.35 524.1c0 1.93-.82 2.9-2.81 2.9-.3 0-.57-.05-.86-.07v-1.59c.22.03.46.07.68.07 1.14 0 1.14-.88 1.14-1.97v-12.26h1.85v12.91zm0-14.71h-1.85v-2.11h1.85z"/>
  <path d="M686.4 517.29c0 1.8 0 4.52 2.27 4.52 1.75 0 2-1.84 2-2.72h1.85c0 1.25-.75 4.17-3.96 4.17-2.88 0-4.08-2-4.08-6.03 0-2.95.57-6.35 4.2-6.35 3.6 0 3.93 3.14 3.93 5.66v.75zm4.26-1.45v-.64c0-1.32-.41-2.88-2.04-2.88-1.93 0-2.15 2.37-2.15 3.08v.44z"/>
  <path d="M698.9 511.19h2.01l2.33 9.44h.04l2.07-9.44h2.03l-3.4 12.56c-.45 1.62-.93 3.07-3.15 3.07-.73 0-1.03-.05-1.34-.07v-1.45c.27.05.61.07 1.08.07.85 0 1.22-.5 1.44-1.14l.35-1.03z"/>
  <path d="M720.77 511.34c0-1.64-.59-2.79-2.43-2.79-1.63 0-2.6.88-2.6 2.55 0 4.41 7.4 1.78 7.4 7.5 0 3.63-2.65 4.66-4.87 4.66-3.66 0-4.74-1.88-4.74-5.22h1.93c0 1.76.1 3.64 2.94 3.64 1.54 0 2.73-1.1 2.73-2.76 0-4.44-7.4-1.87-7.4-7.62 0-1.45.61-4.32 4.6-4.32 2.97 0 4.34 1.49 4.38 4.37h-1.94z"/>
  <path d="M726.57 517.29c0 1.8 0 4.52 2.27 4.52 1.75 0 2-1.84 2-2.72h1.84c0 1.25-.75 4.17-3.95 4.17-2.88 0-4.08-2-4.08-6.03 0-2.95.57-6.35 4.2-6.35 3.6 0 3.92 3.14 3.92 5.66v.75zm4.26-1.45v-.64c0-1.32-.42-2.88-2.05-2.88-1.93 0-2.15 2.37-2.15 3.08v.44z"/>
  <path d="M734.78 511.19h1.85v1.76h.04c.53-1.13 1.23-2.07 2.55-2.07.37 0 .64.04.8.13v1.8c-.16-.02-.38-.09-.98-.09-.92 0-2.41.83-2.41 2.78v7.45h-1.85z"/>
  <path d="M740.68 511.19h2.02l2.2 9.44h.05l2.19-9.44h2.02l-3.18 11.77h-2.1z"/>
  <path d="M750.7 507.28h1.84v2.1h-1.84zm0 3.9h1.84v11.78h-1.84z"/>
  <path d="M760.66 514.76c0-1.14-.46-2.44-1.86-2.44-1.15 0-2.3.57-2.3 4.88 0 1.54.01 4.61 2.23 4.61 1.58 0 1.93-1.66 1.93-2.94h1.85c0 1.86-.92 4.39-3.86 4.39-2.88 0-4.09-2-4.09-6.03 0-2.95.57-6.35 4.2-6.35 3.2 0 3.76 2.52 3.76 3.88z"/>
  <path d="M764.52 507.28h1.85v2.1h-1.85zm0 3.9h1.85v11.78h-1.85z"/>
  <path d="M772.56 510.88c3.4 0 4.24 2.88 4.24 6.19 0 3.32-.85 6.2-4.24 6.2-3.4 0-4.24-2.88-4.24-6.2 0-3.31.86-6.19 4.24-6.19zm2.3 6.19c0-2.54-.37-4.74-2.35-4.74-1.86 0-2.26 2.2-2.26 4.74 0 2.55.37 4.74 2.26 4.74 1.96 0 2.35-2.2 2.35-4.74z"/>
  <path d="M793.56 517.57c-.17 2.96-1.34 5.69-4.76 5.69-4.46 0-5.05-4.2-5.05-8.15s.72-8.14 5.05-8.14c3.2 0 4.54 1.8 4.63 4.87h-2.02c-.05-1.78-.61-3.3-2.6-3.3-2.7 0-3.04 2.95-3.04 6.57s.35 6.57 3.03 6.57c2.34 0 2.68-2.2 2.74-4.1z"/>
  <path d="M798.97 510.88c3.4 0 4.23 2.88 4.23 6.19 0 3.32-.85 6.2-4.23 6.2-3.4 0-4.24-2.88-4.24-6.2 0-3.31.85-6.19 4.24-6.19zm2.3 6.19c0-2.54-.37-4.74-2.35-4.74-1.86 0-2.26 2.2-2.26 4.74 0 2.55.37 4.74 2.26 4.74 1.96 0 2.35-2.2 2.35-4.74z"/>
  <path d="M805.22 511.19h1.75v1.38h.05c.49-1.07 1.71-1.69 2.86-1.69 1.36 0 2.17.53 2.54 1.87.53-1.03 1.58-1.87 2.79-1.87 3.1 0 3.1 2.35 3.1 3.74v8.34h-1.85v-8.12c0-.9-.07-2.38-1.59-2.38-.85 0-2.19.53-2.19 2.38v8.12h-1.85v-8.12c0-.9-.07-2.38-1.58-2.38-.86 0-2.2.53-2.2 2.38v8.12h-1.84v-11.77z"/>
  <path d="M828.64 522.96h-1.76v-1.4h-.04c-.48 1.09-1.7 1.7-2.85 1.7-3.1 0-3.1-2.35-3.1-3.73v-8.35h1.85v8.13c0 .9.06 2.37 1.73 2.37.99 0 2.33-.66 2.33-2.37v-8.13h1.84z"/>
  <path d="M831.05 511.19h1.76v1.38h.04c.49-1.07 1.72-1.69 2.86-1.69 3.1 0 3.1 2.35 3.1 3.74v8.34h-1.85v-8.12c0-.9-.07-2.38-1.74-2.38-.98 0-2.32.66-2.32 2.38v8.12h-1.85z"/>
  <path d="M841.33 507.28h1.84v2.1h-1.84zm0 3.9h1.84v11.78h-1.84z"/>
  <path d="M846.24 507.76h1.85v3.42h2.04v1.45h-2.04v7.55c0 .94.24 1.32 1.2 1.32.4 0 .62-.05.81-.07v1.51c-.24.05-.72.14-1.49.14-1.9 0-2.37-.8-2.37-2.33v-8.13h-1.7v-1.44h1.7z"/>
  <path d="M851.1 514.74c0-2.68 1.14-3.86 3.95-3.86 3.58 0 3.58 2.15 3.58 3.38v6.57c0 .48 0 .94.57.94.24 0 .35-.04.44-.1v1.31a5.9 5.9 0 0 1-1.08.11c-.7 0-1.58 0-1.66-1.52h-.05a3.32 3.32 0 0 1-2.83 1.7c-2.2 0-3.2-1.32-3.2-3.43 0-1.64.7-2.79 2.21-3.25l2.48-.75c1.34-.41 1.34-.79 1.34-1.77 0-1.1-.66-1.74-1.88-1.74-2.02 0-2.02 1.89-2.02 2.3v.11zm5.68 1.8c-.69.73-2.3.88-3.14 1.39-.6.37-.9.83-.9 1.86 0 1.19.4 2.02 1.66 2.02 1.2 0 2.37-1.03 2.37-2.24v-3.03z"/>
  <path d="M861.12 511.19h1.85v1.76h.05c.53-1.13 1.22-2.07 2.54-2.07.37 0 .64.04.81.13v1.8c-.17-.02-.4-.09-.98-.09-.93 0-2.42.83-2.42 2.78v7.45h-1.85z"/>
  <path d="M867.73 507.28h1.85v2.1h-1.85zm0 3.9h1.85v11.78h-1.85z"/>
  <path d="M875.76 510.88c3.4 0 4.24 2.88 4.24 6.19 0 3.32-.85 6.2-4.24 6.2-3.4 0-4.24-2.88-4.24-6.2 0-3.31.86-6.19 4.24-6.19zm2.3 6.19c0-2.54-.36-4.74-2.34-4.74-1.86 0-2.26 2.2-2.26 4.74 0 2.55.37 4.74 2.26 4.74 1.96 0 2.35-2.2 2.35-4.74z"/>
</svg>
